<?xml version="1.0" standalone="no"?><!DOCTYPE svg PUBLIC "-//W3C//DTD SVG 1.1//EN" "http://www.w3.org/Graphics/SVG/1.1/DTD/svg11.dtd"><svg t="1511321080848" class="icon" style="" viewBox="0 0 1024 1024" version="1.1" xmlns="http://www.w3.org/2000/svg" p-id="2375" xmlns:xlink="http://www.w3.org/1999/xlink" width="48" height="48"><defs><style type="text/css"></style></defs><path d="M1024 120.470588H0v240.941177h60.235294v662.588235h903.529412V361.411765h60.235294V120.470588z m-120.470588 843.294118H120.470588V361.411765h783.058824v602.352941z m60.235294-662.588235H60.235294V180.705882h903.529412v120.470589zM361.411765 662.588235h302.140235c66.439529 0 120.470588-54.031059 120.470588-120.470588s-54.031059-120.470588-120.470588-120.470588H361.411765c-66.439529 0-120.470588 54.031059-120.470589 120.470588s54.031059 120.470588 120.470589 120.470588z m0-180.705882h302.140235a60.235294 60.235294 0 0 1 0 120.470588H361.411765a60.235294 60.235294 0 0 1 0-120.470588z" fill="" p-id="2376"></path></svg>