<?xml version="1.0" standalone="no"?><!DOCTYPE svg PUBLIC "-//W3C//DTD SVG 1.1//EN" "http://www.w3.org/Graphics/SVG/1.1/DTD/svg11.dtd"><svg t="1520587664899" class="icon" style="" viewBox="0 0 1025 1024" version="1.1" xmlns="http://www.w3.org/2000/svg" p-id="18263" xmlns:xlink="http://www.w3.org/1999/xlink" width="48.046875" height="48"><defs><style type="text/css"></style></defs><path d="M911.513786 71.375501l-3.854828-3.854828c-90.007168-90.007168-237.286062-90.007168-327.29323 0L371.837905 276.048496c-90.007168 90.007168-90.007168 237.255468 0 327.262636l3.854828 3.854828c7.495498 7.495498 15.449905 14.256744 23.649062 20.528487l76.331708-76.331708c-8.902816-5.262146-17.316131-11.533889-24.964599-19.182357l-3.854828-3.854828c-48.858412-48.858412-48.858412-128.371882 0-177.230293L655.3819 142.536844c48.858412-48.858412 128.371882-48.858412 177.230293 0l3.854828 3.854828c48.858412 48.858412 48.858412 128.402476 0 177.230293l-94.351497 94.351497c16.367721 40.445097 24.138564 83.551861 23.465499 126.566843l145.90217-145.90217C1001.49036 308.630968 1001.49036 161.352074 911.513786 71.375501zM603.311132 371.837905c-7.495498-7.495498-15.449905-14.256744-23.649062-20.497893l-76.331708 76.331708c8.902816 5.262146 17.316131 11.533889 24.964599 19.182357l3.854828 3.854828c48.858412 48.858412 48.858412 128.371882 0 177.230293L323.621965 836.497615c-48.858412 48.858412-128.371882 48.858412-177.230293 0l-3.854828-3.854828c-48.858412-48.858412-48.858412-128.371882 0-177.230293l94.351497-94.351497c-16.367721-40.445097-24.138564-83.551861-23.465499-126.566843l-145.90217 145.90217c-90.007168 90.007168-90.007168 237.286062 0 327.29323l3.854828 3.854828c90.007168 90.007168 237.286062 90.007168 327.29323 0l208.527823-208.527823c90.007168-90.007168 90.007168-237.286062 0-327.29323L603.311132 371.837905z" p-id="18264"></path></svg>