<?xml version="1.0" standalone="no"?><!DOCTYPE svg PUBLIC "-//W3C//DTD SVG 1.1//EN" "http://www.w3.org/Graphics/SVG/1.1/DTD/svg11.dtd"><svg t="1520587381316" class="icon" style="" viewBox="0 0 1024 1024" version="1.1" xmlns="http://www.w3.org/2000/svg" p-id="14833" xmlns:xlink="http://www.w3.org/1999/xlink" width="48" height="48"><defs><style type="text/css"></style></defs><path d="M1005.64992 512.032768q7.999488 0 13.142016 5.142528t5.142528 13.142016l0 36.569088q0 7.999488-5.142528 13.142016t-13.142016 5.142528l-987.365376 0q-7.999488 0-13.142016-5.142528t-5.142528-13.142016l0-36.569088q0-7.999488 5.142528-13.142016t13.142016-5.142528l987.365376 0zm-729.667584-36.569088q-15.998976-19.99872-29.140992-45.71136-27.426816-55.425024-27.426816-107.421696 0-103.421952 76.566528-176.560128 75.995136-72.566784 224.557056-72.566784 28.5696 0 95.422464 10.856448 37.711872 6.856704 101.136384 27.426816 5.71392 21.712896 11.999232 67.424256 7.999488 70.281216 7.999488 104.564736 0 10.285056-2.85696 25.71264l-6.856704 1.714176-47.996928-3.428352-7.999488-1.142784q-28.5696-85.137408-58.853376-117.13536-50.282496-51.996672-119.99232-51.996672-65.138688 0-103.993344 33.712128-38.283264 33.140736-38.283264 83.423232 0 41.711616 37.711872 79.99488t159.418368 73.709568q39.426048 11.42784 98.850816 37.711872 33.140736 15.998976 54.28224 29.712384l-424.544256 0zm289.695744 146.276352l234.842112 0q3.999744 22.284288 3.999744 52.568064 0 63.424512-23.427072 121.135104-13.142016 31.42656-40.568832 59.424768-21.141504 19.99872-62.281728 46.282752-45.71136 27.426816-87.422976 37.711872-45.71136 11.999232-115.992576 11.999232-65.138688 0-111.42144-13.142016l-79.99488-22.85568q-32.569344-9.142272-41.140224-15.998976-4.571136-4.571136-4.571136-12.570624l0-7.428096q0-61.710336-1.142784-89.137152 571.392-17.14176 0-38.854656l1.142784-21.141504 0-25.141248 58.281984-1.142784q8.57088 19.427328 17.14176 40.568832t12.85632 31.997952 7.1424 15.427584q19.99872 32.569344 45.71136 53.710848 24.569856 20.570112 59.99616 32.569344 33.712128 12.570624 75.423744 12.570624 36.569088 0 79.423488-15.427584 43.997184-14.856192 69.709824-49.139712 26.855424-34.854912 26.855424-73.709568 0-47.996928-46.282752-89.708544-19.427328-16.570368-78.280704-40.568832z" p-id="14834"></path></svg>