<?xml version="1.0" standalone="no"?><!DOCTYPE svg PUBLIC "-//W3C//DTD SVG 1.1//EN" "http://www.w3.org/Graphics/SVG/1.1/DTD/svg11.dtd"><svg t="1524455632414" class="icon" style="" viewBox="0 0 1024 1024" version="1.1" xmlns="http://www.w3.org/2000/svg" p-id="1039" xmlns:xlink="http://www.w3.org/1999/xlink" width="200" height="200"><defs><style type="text/css"></style></defs><path d="M507.343 865.812q-39.85-41.353-119.549-124.060-80.451-82.707-200.752-206.767-30.827-33.083-46.617-72.932-15.789-39.098-15.789-84.962 0-47.368 16.541-87.218 15.789-40.601 48.872-74.436 32.331-33.083 71.429-49.624 39.098-16.541 84.962-16.541 23.308 0 45.113 4.511 21.805 4.511 42.857 14.286 21.053 9.023 39.098 22.556 18.045 12.782 33.835 30.075 15.789-17.293 33.835-30.075 18.797-13.534 39.098-22.556 21.053-9.774 42.857-14.286 21.805-4.511 45.113-4.511 45.865 0 84.962 16.541 39.098 16.541 71.429 49.624 32.331 33.835 48.872 74.436 16.541 39.85 16.541 87.218 0 48.12-17.293 88.722-16.541 41.353-50.376 74.436-52.632 54.135-131.579 135.338-78.947 81.203-183.459 190.226zM346.44 185.361q-38.346 0-71.429 14.286-33.083 13.534-60.902 41.353-27.068 28.571-40.602 62.406-13.534 33.835-13.534 73.684 0 38.346 12.782 71.429 13.534 33.083 39.098 60.902 49.624 51.128 123.308 127.068 73.684 76.692 172.18 178.195 36.090-37.594 108.271-112.782 72.932-75.188 181.955-187.218 28.571-28.571 42.857-62.406 14.286-34.586 14.286-75.188 0-39.85-13.534-73.684-13.534-33.835-40.602-62.406-27.82-27.82-60.902-41.353-33.083-14.286-71.429-14.286-21.805 0-42.105 5.263-21.053 4.511-39.85 14.286-19.549 9.774-35.338 23.308-16.541 13.534-30.075 31.579-2.256 3.008-6.015 7.519-3.008 4.511-7.519 11.278-1.504-3.008-5.263-7.519-3.008-4.511-8.271-11.278-13.534-18.045-30.075-31.579-16.541-13.534-35.338-23.308-19.549-9.774-39.85-14.286-20.301-5.263-42.105-5.263z" p-id="1040" fill="#333333"></path></svg>