<?xml version="1.0" standalone="no"?><!DOCTYPE svg PUBLIC "-//W3C//DTD SVG 1.1//EN" "http://www.w3.org/Graphics/SVG/1.1/DTD/svg11.dtd"><svg t="1524641559264" class="icon" style="" viewBox="0 0 1024 1024" version="1.1" xmlns="http://www.w3.org/2000/svg" p-id="1702" xmlns:xlink="http://www.w3.org/1999/xlink" width="200" height="200"><defs><style type="text/css"></style></defs><path d="M950.796288 548.601856q-86.851584-134.848512-217.700352-201.701376 34.854912 59.424768 34.854912 128.5632 0 105.70752-75.138048 180.845568t-180.845568 75.138048-180.845568-75.138048-75.138048-180.845568q0-69.138432 34.854912-128.5632-130.848768 66.852864-217.700352 201.701376 75.995136 117.13536 190.559232 186.559488t248.269824 69.424128 248.269824-69.424128 190.559232-186.559488zm-411.40224-219.414528q0-11.42784-7.999488-19.427328t-19.427328-7.999488q-71.424 0-122.563584 51.139584t-51.139584 122.563584q0 11.42784 7.999488 19.427328t19.427328 7.999488 19.427328-7.999488 7.999488-19.427328q0-49.139712 34.854912-83.994624t83.994624-34.854912q11.42784 0 19.427328-7.999488t7.999488-19.427328zm484.540416 219.414528q0 19.427328-11.42784 39.426048-79.99488 131.42016-215.129088 210.557952t-285.410304 79.137792-285.410304-79.423488-215.129088-210.272256q-11.42784-19.99872-11.42784-39.426048t11.42784-39.426048q79.99488-130.848768 215.129088-210.272256t285.410304-79.423488 285.410304 79.423488 215.129088 210.272256q11.42784 19.99872 11.42784 39.426048z" p-id="1703"></path></svg>