<?xml version="1.0" standalone="no"?><!DOCTYPE svg PUBLIC "-//W3C//DTD SVG 1.1//EN" "http://www.w3.org/Graphics/SVG/1.1/DTD/svg11.dtd"><svg t="1511321127718" class="icon" style="" viewBox="0 0 1024 1024" version="1.1" xmlns="http://www.w3.org/2000/svg" p-id="3043" xmlns:xlink="http://www.w3.org/1999/xlink" width="48" height="48"><defs><style type="text/css"></style></defs><path d="M332.287325 468.315146c-20.568413 0-37.258504 15.257465-37.258504 34.127194s16.679858 34.127194 37.258504 34.127194L921.638886 536.569533c20.609346 0 37.268737-15.267698 37.268737-34.127194s-16.669625-34.127194-37.27897-34.127194L332.287325 468.315146ZM124.055162 445.863853A55.45 55.45 0 1 0 181.145301 502.606068a55.6 55.6 0 0 0-57.069673-56.742215l0 0Z" p-id="3044"></path><path d="M919.356917 172.825838 330.005356 172.825838c-20.568413 0-37.258504 15.257465-37.258504 34.127194s16.679858 34.127194 37.258504 34.127194L919.356917 241.080225c20.609346 0 37.268737-15.277931 37.268737-34.127194s-16.659392-34.127194-37.268737-34.127194l0 0ZM121.79366 150.374545a55.44 55.44 0 1 0 57.069673 56.731982A55.6 55.6 0 0 0 121.79366 150.374545l0 0Z" p-id="3045"></path><path d="M921.945877 763.814686 332.287325 763.814686c-20.568413 0-37.258504 15.267698-37.258504 34.127194s16.679858 34.137427 37.258504 34.137427L921.945877 832.079306c20.609346 0 37.268737-15.277931 37.268737-34.137427s-16.659392-34.127194-37.268737-34.127194l0 0ZM124.055162 741.363393A55.45 55.45 0 1 0 181.145301 798.105608a55.6 55.6 0 0 0-57.069673-56.731982l0 0Z" p-id="3046"></path></svg>