<?xml version="1.0" standalone="no"?><!DOCTYPE svg PUBLIC "-//W3C//DTD SVG 1.1//EN" "http://www.w3.org/Graphics/SVG/1.1/DTD/svg11.dtd"><svg t="1511320934369" class="icon" style="" viewBox="0 0 1024 1024" version="1.1" xmlns="http://www.w3.org/2000/svg" p-id="1019" xmlns:xlink="http://www.w3.org/1999/xlink" width="48" height="48"><defs><style type="text/css"></style></defs><path d="M512 0C229.3 0 0 229.5 0 512c0 282.7 229.5 512 512 512 282.7 0 512-229.5 512-512C1024 229.3 794.7 0 512 0zM512 76.8c161 0 301.3 87.6 376.4 217.5L512 294.3c-105.6 0-193.1 75.1-213.3 174.6L169.2 244.3C248.7 142.7 372.7 76.8 512 76.8zM675.2 512c0 90.3-72.8 163.2-163.2 163.2-90.3 0-163.1-72.8-163.1-163.2 0-90.3 72.8-163.1 163.1-163.1S675.2 421.7 675.2 512zM451.6 942.4C240.1 912.9 76.8 731.8 76.8 512c0-79.4 21.3-153.3 58.2-217.5l188.8 326.4 0.6 0c37.6 64.8 106 108.8 187.6 108.8 24.5 0 47.9-5 70.1-12.5L451.6 942.4zM512 947.2l188.2-326.4-0.6 0c18.4-32.6 29.9-69 29.9-108.8 0-65.3-29.3-123.4-75.1-163.1L915 348.9c20.7 50.6 32 105.6 32 163.1C947.2 752.5 752.5 947.2 512 947.2z" p-id="1020"></path></svg>