<?xml version="1.0" standalone="no"?><!DOCTYPE svg PUBLIC "-//W3C//DTD SVG 1.1//EN" "http://www.w3.org/Graphics/SVG/1.1/DTD/svg11.dtd"><svg t="1511321216989" class="icon" style="" viewBox="0 0 1024 1024" version="1.1" xmlns="http://www.w3.org/2000/svg" p-id="5535" xmlns:xlink="http://www.w3.org/1999/xlink" width="48" height="48"><defs><style type="text/css"></style></defs><path d="M509.953388 57.464783c-250.633271 0-454.535217 203.90297-454.535217 454.535217 0 250.662947 203.901946 454.535217 454.535217 454.535217 250.638387 0 454.535217-203.895807 454.535217-454.535217C964.488605 261.368776 760.590751 57.464783 509.953388 57.464783L509.953388 57.464783zM508.23935 923.475516c-227.256864 0-412.150898-184.888917-412.150898-412.150898 0-227.256864 184.895057-412.150898 412.150898-412.150898 227.263004 0 412.150898 184.895057 412.150898 412.150898C920.391271 738.586598 735.502353 923.475516 508.23935 923.475516L508.23935 923.475516zM509.953388 913.060305" p-id="5536"></path><path d="M510.004553 432.933223c-14.559601 0-26.373671 11.812023-26.373671 26.372647l0 303.290561c0 14.583137 11.81407 26.372647 26.373671 26.372647s26.372647-11.789511 26.372647-26.372647L536.3772 459.304847C536.376177 444.745247 524.564154 432.933223 510.004553 432.933223L510.004553 432.933223zM510.004553 432.933223" p-id="5537"></path><path d="M457.258235 301.068963c0 13.804401 5.686513 27.53103 15.446807 37.292348 9.766434 9.766434 23.486924 15.452947 37.299511 15.452947 13.81054 0 27.53103-5.686513 37.299511-15.452947 9.766434-9.761318 15.446807-23.48897 15.446807-37.292348 0-13.811564-5.680373-27.53717-15.446807-37.299511-9.767458-9.766434-23.48897-15.452947-37.299511-15.452947-13.811564 0-27.533077 5.686513-37.299511 15.452947C462.944747 273.531793 457.258235 287.257399 457.258235 301.068963L457.258235 301.068963zM457.258235 301.068963" p-id="5538"></path></svg>