<?xml version="1.0" standalone="no"?><!DOCTYPE svg PUBLIC "-//W3C//DTD SVG 1.1//EN" "http://www.w3.org/Graphics/SVG/1.1/DTD/svg11.dtd"><svg t="1520587228642" class="icon" style="" viewBox="0 0 1024 1024" version="1.1" xmlns="http://www.w3.org/2000/svg" p-id="11973" xmlns:xlink="http://www.w3.org/1999/xlink" width="48" height="48"><defs><style type="text/css"></style></defs><path d="M256 832 256 128l303.488 0c156.288 0 208 92.8 209.024 167.488 0.896 62.912-15.296 151.68-109.632 174.016C772.48 492.16 796.096 558.4 796.096 640c0 79.424-43.264 192-196.224 192L256 832zM381.376 446.528l140.032 0c56.32 0 128.832-46.4 128.832-129.728 0-110.016-77.312-132.224-137.024-132.224l-131.84 0L381.376 446.528zM381.376 775.488l135.488 0c73.984 0 139.136-51.328 139.136-136 0-97.024-66.304-136.512-142.656-136.512L381.376 502.976 381.376 775.488z" p-id="11974"></path></svg>