<?xml version="1.0" standalone="no"?><!DOCTYPE svg PUBLIC "-//W3C//DTD SVG 1.1//EN" "http://www.w3.org/Graphics/SVG/1.1/DTD/svg11.dtd"><svg t="1511321172242" class="icon" style="" viewBox="0 0 1024 1024" version="1.1" xmlns="http://www.w3.org/2000/svg" p-id="3698" xmlns:xlink="http://www.w3.org/1999/xlink" width="48" height="48"><defs><style type="text/css"></style></defs><path d="M990.784 496.416 496.064 991.168C484.192 1003.04 468.384 1009.568 451.552 1009.568 434.752 1009.568 418.976 1003.04 407.104 991.136L28.896 612.992C17.024 601.12 10.496 585.312 10.496 568.48 10.496 551.68 17.056 535.872 28.928 524L523.648 29.28C544.576 8.32 576.672 8.32 597.888 8.32L611.744 8.352 935.584 8.32C977.568 8.32 1011.744 42.496 1011.744 84.48L1011.744 408.32 1011.744 415.328C1011.872 444.768 1011.968 475.232 990.784 496.416ZM949.152 415.584 949.152 408.32 949.152 84.48C949.152 76.992 943.072 70.88 935.584 70.88L611.744 70.944 597.664 70.88C590.24 70.88 572.32 70.88 567.36 73.984L73.184 568.256 451.36 946.88 946.528 452.16C949.28 447.424 949.216 427.488 949.152 415.584ZM761.44 383.776C692.32 383.776 636.288 327.744 636.288 258.624 636.288 189.504 692.32 133.472 761.44 133.472 830.56 133.472 886.592 189.504 886.592 258.624 886.592 327.744 830.56 383.776 761.44 383.776ZM761.44 196.064C726.88 196.064 698.848 224.064 698.848 258.624 698.848 293.184 726.88 321.216 761.44 321.216 796 321.216 824.032 293.184 824.032 258.624 824.032 224.064 796 196.064 761.44 196.064Z" p-id="3699" fill="#666"></path></svg>